#File generated from solving marker data for model walk1.trc
name solved_motion
datacolumns 106
datarows 8
range 0.5000000000 0.5580000000
units unknown
enforce_loops no
enforce_constraints no
endheader

time	lower_torso_TX	lower_torso_TY	lower_torso_TZ	lower_torso_RX	lower_torso_RY	lower_torso_RZ	lumbar_roll	lumbar_yaw	lumbar_pitch	neck_roll	neck_yaw	neck_pitch	arm_add_r	arm_rot_r	arm_flex_r	elbow_flex_r	pro_sup_r	wrist_dev_r	wrist_flex_r	arm_add_l	arm_rot_l	arm_flex_l	pro_sup_l	wrist_dev_l	wrist_flex_l	hip_add_r	hip_rot_r	hip_flex_r	ankle_flex_r	subt_angle_r	toe_angle_r	hip_add_l	hip_rot_l	hip_flex_l	knee_flex_l	ankle_flex_l	subt_angle_l	toe_angle_l	knee_flex_r	R.Shoulder_px	R.Shoulder_py	R.Shoulder_pz	R.Scapula_px	R.Scapula_py	R.Scapula_pz	L.Shoulder_px	L.Shoulder_py	L.Shoulder_pz	R.ASIS_px	R.ASIS_py	R.ASIS_pz	V.Sacral_px	V.Sacral_py	V.Sacral_pz	L.ASIS_px	L.ASIS_py	L.ASIS_pz	R.Elbow_px	R.Elbow_py	R.Elbow_pz	R.Wrist_px	R.Wrist_py	R.Wrist_pz	L.Elbow_px	L.Elbow_py	L.Elbow_pz	L.Wrist_px	L.Wrist_py	L.Wrist_pz	R.Thigh_px	R.Thigh_py	R.Thigh_pz	R.Knee_px	R.Knee_py	R.Knee_pz	R.Shank_px	R.Shank_py	R.Shank_pz	R.Ankle_px	R.Ankle_py	R.Ankle_pz	R.Heel_px	R.Heel_py	R.Heel_pz	R.Toe_px	R.Toe_py	R.Toe_pz	L.Thigh_px	L.Thigh_py	L.Thigh_pz	L.Knee_px	L.Knee_py	L.Knee_pz	L.Shank_px	L.Shank_py	L.Shank_pz	L.Ankle_px	L.Ankle_py	L.Ankle_pz	L.Heel_px	L.Heel_py	L.Heel_pz	L.Toe_px	L.Toe_py	L.Toe_pz	
0.5000000000	-1.0299567153	0.2922734696	0.7200050009	88.4524102778	-2.5341509196	0.9386418168	4.3092860938	5.3156442178	-21.0292555005	0.0000000000	0.0000000000	0.0000000000	-42.2470090384	-9.9999999977	10.3516990714	34.8552838073	65.9983153260	0.0000000000	0.0000000000	-19.2754938915	10.0000000000	33.5931329284	70.0000000000	0.0000000000	0.0000000000	5.3430728571	12.9218047822	44.5030424961	30.0000000000	10.0380265303	0.0000000000	-2.5452757255	16.3682446295	42.1218319603	108.6331997767	8.6612826380	18.3573631338	0.0000000000	94.0445383825	-0.9868759800	0.0401011700	1.1102242400	-1.1524768100	0.1830480200	1.1260617700	-1.0006666900	0.4921404100	1.1655865500	-1.0039503800	0.1489830200	0.7478431400	-1.2268704800	0.3047489600	0.7999198600	-0.9952354700	0.4272991900	0.7385031700	-1.0858869600	-0.1084260600	0.8979081400	-0.9009807700	-0.2189602400	0.7735671400	-1.0460786100	0.6363411300	0.9217026400	-0.8593225100	0.6576086400	0.7489990200	-0.9260047000	0.0739899600	0.4387201200	-0.8451998900	0.1617356400	0.3325671700	-0.9517620200	0.0622919200	0.1897589300	-1.1461945800	0.0860266500	0.0721788600	-1.2136135300	0.1062817100	0.0874151800	-1.0585058600	0.1548126200	0.0427132800	-0.8809974400	0.5137044700	0.4032205500	-0.8507504900	0.4353157000	0.3367280600	-1.0730760500	0.5784736300	0.2141965900	-1.2095631100	0.5446405000	0.1677209200	-1.2721854200	0.5226048600	0.2152487300	-1.1729890100	0.4871969900	0.0748783400	
0.5080000000	-1.0243009393	0.2912662807	0.7204026665	88.4012946505	-2.8033646846	0.7965818994	4.3087092039	5.4851076288	-21.1942119452	0.0000000000	0.0000000000	0.0000000000	-42.1109047015	-9.9999999977	10.7259653084	38.9503288460	50.0000000036	0.0000000000	0.0000000000	-19.3842352286	10.0000000000	32.9445545220	70.0000000000	0.0000000000	0.0000000000	5.6730764595	12.9652847885	44.2284723178	30.0000000000	9.3227654064	0.0000000000	-2.5700083992	16.1318077329	43.1979752375	108.7665681477	9.5954055697	16.2608464631	-0.0010000000	93.9191903721	-0.9813082300	0.0370079900	1.1122902800	-1.1456068100	0.1812245300	1.1266695600	-0.9927771000	0.4928605000	1.1671038800	-0.9992966300	0.1473634900	0.7486327500	-1.2210227100	0.3051713600	0.8006163300	-0.9887586700	0.4265260000	0.7398976400	-1.0768648700	-0.1108955700	0.8984080800	-0.8895051900	-0.2189290600	0.7751455100	-1.0410202600	0.6354416500	0.9225589600	-0.8570993700	0.6598103000	0.7453151200	-0.9211926900	0.0752640500	0.4372915000	-0.8432856400	0.1605752600	0.3306687300	-0.9503424100	0.0626247400	0.1896517500	-1.1433819600	0.0883128900	0.0717860000	-1.2108803700	0.1072973900	0.0875473100	-1.0585058600	0.1548126200	0.0427132800	-0.8722966900	0.5121021700	0.4060650600	-0.8416228000	0.4341706500	0.3405300000	-1.0584843800	0.5753581500	0.2160711700	-1.1991727300	0.5442450000	0.1687877500	-1.2585827600	0.5189240700	0.2118884400	-1.1559218800	0.4848756400	0.0744437700	
0.5170000000	-1.0177691387	0.2904508986	0.7209773516	88.3377034814	-3.1565145844	0.9135661324	4.2404734669	6.1414019985	-21.2063527611	0.0000000000	0.0000000000	0.0000000000	-42.5601938042	-9.9999999977	11.1163670668	38.5249045309	50.0000000036	0.0000000000	0.0000000000	-19.0981807679	10.0000000000	32.4485713676	70.0000000000	0.0000000000	0.0000000000	5.6130263614	12.9510061865	43.5119827441	30.0000000000	10.7774121590	0.0000000000	-2.5939266387	15.8736786470	44.0606457251	108.6807701477	9.5313805563	17.3056372570	-0.0020000000	93.9513273524	-0.9737075800	0.0386534000	1.1107531700	-1.1396951900	0.1803716700	1.1272434100	-0.9903700600	0.4907271700	1.1692069100	-0.9931492300	0.1474494000	0.7485784900	-1.2149377400	0.3046028400	0.8009585600	-0.9813718900	0.4252959900	0.7397585400	-1.0677586700	-0.1125861200	0.8991557000	-0.8782573200	-0.2191711000	0.7777144800	-1.0369992700	0.6339545300	0.9245722000	-0.8569434800	0.6612699600	0.7435591400	-0.9181659500	0.0751812200	0.4357068800	-0.8425340600	0.1576071200	0.3285259400	-0.9520914900	0.0599732500	0.1891008800	-1.1432970000	0.0869833400	0.0728553800	-1.2109406700	0.1069945400	0.0894093900	-1.0585058600	0.1548126200	0.0427132800	-0.8592576300	0.5089156200	0.4103295900	-0.8304909100	0.4321211200	0.3443986200	-1.0421799300	0.5735886200	0.2158245400	-1.1845787400	0.5419838300	0.1668820300	-1.2430946000	0.5160139800	0.2076243300	-1.1385466300	0.4816755100	0.0735010400	
0.5250000000	-1.0109761294	0.2892951783	0.7210817156	88.1124842815	-3.5442386688	0.6051270996	4.3540397445	6.2225687061	-20.9624347111	0.0000000000	0.0000000000	0.0000000000	-42.7545080582	-9.9999999977	12.6152014169	37.5434267645	50.0000000036	0.0000000000	0.0000000000	-19.1020784212	10.0000000000	31.1622014934	70.0000000000	0.0000000000	0.0000000000	6.1075435493	13.0093577316	43.2434094201	30.0000000000	9.8629087658	0.0000000000	-2.9301447601	15.4687238198	45.5240317708	108.5813314948	10.0650028747	15.9924344492	-0.0030000000	94.0639106406	-0.9695289300	0.0354854000	1.1128252000	-1.1328404500	0.1803189500	1.1276444100	-0.9806983000	0.4905372300	1.1681179200	-0.9875397900	0.1467591100	0.7485236200	-1.2087043500	0.3047776800	0.8018480800	-0.9731561900	0.4247198500	0.7392388300	-1.0544482400	-0.1128332800	0.8987150300	-0.8671798700	-0.2191343500	0.7807289400	-1.0325992400	0.6336256100	0.9252238800	-0.8578451500	0.6618353300	0.7406632100	-0.9153247100	0.0742663300	0.4342941300	-0.8407459700	0.1568043100	0.3282472800	-0.9480918000	0.0603621200	0.1880617100	-1.1421131600	0.0876801100	0.0742928600	-1.2139986600	0.1072982700	0.0923059000	-1.0582121600	0.1545947400	0.0429037900	-0.8496249400	0.5080952800	0.4137641300	-0.8150689100	0.4295543800	0.3489784500	-1.0299522700	0.5700532800	0.2189568800	-1.1669627700	0.5369335900	0.1624706400	-1.2292891800	0.5129005100	0.2048120600	-1.1184729000	0.4788029500	0.0721886900	
0.5330000000	-1.0052758281	0.2883381614	0.7219355936	88.1844026893	-3.9901078673	0.6534128823	4.2767559005	6.3506907819	-21.2569118964	0.0000000000	0.0000000000	0.0000000000	-43.2682886176	-9.9999999977	13.6854461849	37.5985765908	50.0000000036	0.0000000000	0.0000000000	-19.8569648752	10.0000000000	30.1410418663	70.0000000000	0.0000000000	0.0000000000	6.2059287778	13.2453996871	42.7666844613	30.0000000000	9.9865978962	0.0000000000	-2.5137189855	15.3580930230	46.3016396033	108.3419133755	10.8075522654	17.9836068397	-0.0040000000	94.1362500351	-0.9647327900	0.0322054300	1.1142031300	-1.1264683800	0.1794578100	1.1284228500	-0.9725576800	0.4888408500	1.1679836400	-0.9834789400	0.1463158000	0.7494415300	-1.2032396200	0.3052301900	0.8030082400	-0.9656876800	0.4243938000	0.7400191700	-1.0452369400	-0.1138792900	0.8988526000	-0.8551577100	-0.2201183000	0.7832323000	-1.0280155000	0.6332645300	0.9264658800	-0.8571063800	0.6686654100	0.7402740500	-0.9129016700	0.0734863000	0.4335726000	-0.8387934600	0.1552758800	0.3266468200	-0.9450269800	0.0597572600	0.1865417600	-1.1419060100	0.0882589600	0.0760227300	-1.2140969200	0.1070858900	0.0941903300	-1.0568765900	0.1546163800	0.0434460300	-0.8385852100	0.5044044200	0.4185540500	-0.8034851100	0.4237247300	0.3527291900	-1.0149470800	0.5679090000	0.2190798000	-1.1502094700	0.5335394900	0.1591277500	-1.2145813000	0.5130755000	0.2004977000	-1.1022479200	0.4735065000	0.0732198200	
0.5420000000	-1.0002823870	0.2871678618	0.7225654750	88.4432270586	-4.2660347928	0.6381290229	3.7453154153	6.5820102911	-21.3680188199	0.0000000000	0.0000000000	0.0000000000	-43.3542991494	-9.9999999977	14.5410959172	37.4420268174	50.0000000036	0.0000000000	0.0000000000	-20.0691479712	10.0000000000	29.7873051622	70.0000000000	0.0000000000	0.0000000000	6.1925748456	13.4956146918	42.5293990819	30.0000000000	9.6120447824	0.0000000000	-2.0421761561	15.0757194781	47.3865192792	108.0430838593	10.8385925121	16.5609486401	-0.0050000000	94.3995868139	-0.9591791400	0.0326224900	1.1160607900	-1.1201251200	0.1792441600	1.1295930200	-0.9679423800	0.4894342700	1.1680662800	-0.9789145500	0.1449595800	0.7499000200	-1.1972872300	0.3066068700	0.8034245000	-0.9607686200	0.4223197900	0.7409230300	-1.0348372800	-0.1151561400	0.8987611100	-0.8433165900	-0.2183541900	0.7856326300	-1.0241201200	0.6326113900	0.9280307000	-0.8551480100	0.6717138700	0.7373310500	-0.9099526400	0.0726792500	0.4319033800	-0.8326947600	0.1557645400	0.3245829800	-0.9457666600	0.0592973600	0.1871282200	-1.1395040300	0.0894418700	0.0767883000	-1.2138143300	0.1076396900	0.0977226200	-1.0560896000	0.1546050700	0.0437578200	-0.8288400300	0.5014488800	0.4227160900	-0.7982379200	0.4203561100	0.3602973300	-0.9993005400	0.5631156000	0.2202298600	-1.1331536900	0.5312734400	0.1565605200	-1.1993161600	0.5102654100	0.1971819800	-1.0837918700	0.4710952500	0.0725809200	
0.5500000000	-0.9938675600	0.2864627565	0.7237166145	88.4391626795	-4.9436690587	0.8515276366	3.4855987960	7.5132592475	-21.6751625105	0.0000000000	0.0000000000	0.0000000000	-43.7733899426	-9.9999999977	14.6459123263	37.5101665811	50.0000000036	0.0000000000	0.0000000000	-19.9394229789	10.0000000000	29.0709249446	70.0000000000	0.0000000000	0.0000000000	6.4421202565	13.9087372514	41.6686016802	30.0000000000	10.0772148647	0.0000000000	-2.1718946522	14.5377017754	48.1767871842	107.7239710026	10.9428759002	16.0505925914	-0.0060000000	94.0828825653	-0.9508318500	0.0333866700	1.1167204600	-1.1140745800	0.1786528800	1.1295916700	-0.9620286900	0.4895355200	1.1695510300	-0.9746850600	0.1440080900	0.7509682000	-1.1903499800	0.3073824800	0.8041335400	-0.9531671800	0.4221017500	0.7424494600	-1.0254152800	-0.1163591800	0.8995438800	-0.8326035800	-0.2179518300	0.7873868400	-1.0217554300	0.6339200400	0.9290914900	-0.8565231300	0.6739273100	0.7362324800	-0.9068557100	0.0735317400	0.4310170900	-0.8335213000	0.1539238600	0.3229826700	-0.9430557900	0.0591192700	0.1857305000	-1.1397174100	0.0898544500	0.0770484800	-1.2098774400	0.1082106300	0.0963596400	-1.0564163800	0.1544341300	0.0438600700	-0.8144841900	0.4979139100	0.4267816800	-0.7832318100	0.4187159100	0.3656840500	-0.9826501500	0.5625751300	0.2204074600	-1.1150990000	0.5279134500	0.1534350000	-1.1833619400	0.5076844800	0.1925547900	-1.0643781700	0.4678395100	0.0713803100	
0.5580000000	-0.9884008167	0.2862887415	0.7244055272	88.5983786608	-5.3176379509	1.0895773712	3.1369055358	8.4142680448	-22.3336127863	0.0000000000	0.0000000000	0.0000000000	-44.5219690124	-9.9999999977	13.9863128390	39.3185508407	50.0000000036	0.0000000000	0.0000000000	-19.7717756063	10.0000000000	28.8347991180	70.0000000000	0.0000000000	0.0000000000	6.2387686943	14.1830008052	40.9467236329	30.0000000000	10.8954129275	0.0000000000	-1.6845337146	14.4074116434	48.9266002817	107.3881659212	11.7576385047	14.6205737141	-0.0070000000	94.1366354243	-0.9386649800	0.0350727800	1.1146678500	-1.1065039100	0.1778303100	1.1304968300	-0.9568613900	0.4906244200	1.1703807400	-0.9698895300	0.1424028900	0.7509638700	-1.1847596400	0.3086293600	0.8044642300	-0.9485611000	0.4223135100	0.7434302400	-1.0185102500	-0.1178877800	0.9005923500	-0.8187206400	-0.2166706100	0.7886951900	-1.0183938000	0.6330275300	0.9311953100	-0.8574775400	0.6771868900	0.7339261500	-0.9044196800	0.0725466200	0.4302842700	-0.8299423200	0.1531541600	0.3215725400	-0.9429507400	0.0582354600	0.1850438800	-1.1405806900	0.0890167200	0.0784529000	-1.2097002000	0.1080578000	0.0969415900	-1.0564163800	0.1544341300	0.0438600700	-0.8011581400	0.4951546600	0.4308642000	-0.7698305100	0.4141938800	0.3687939500	-0.9686432500	0.5605042100	0.2212510100	-1.0949560500	0.5250493200	0.1493560900	-1.1699879200	0.5071489000	0.1896279000	-1.0435585900	0.4657401400	0.0706985500	
